{"title":"Black Butterflies-AC3-XviD-DVDRip 2011","uid":6602425,"size":1406447359,"categoryP":"video","categoryS":"movies","magnet":"?xt=urn:btih:2a48e6b35eae7b0a0478ad1f25db703379a0ae18&amp;dn=Black+Butterflies-AC3-XviD-DVDRip+2011&amp;tr=udp%3A%2F%2Ftracker.openbittorrent.com%3A80&amp;tr=udp%3A%2F%2Fopen.demonii.com%3A1337&amp;tr=udp%3A%2F%2Ftracker.coppersurfer.tk%3A6969&amp;tr=udp%3A%2F%2Fexodus.desync.com%3A6969","seeders":1,"leechers":0,"uploader":"FatFreddy31","files":-1,"time":1313262189,"description":"[img]http://img811.imageshack.us/img811/1921/blackbutterflies.jpg[/img]\n &lt;a href=&quot;\nhttp://www.imdb.com/title/tt0906778/&quot; rel=&quot;nofollow&quot; target=&quot;_NEW&quot;&gt;\nhttp://www.imdb.com/title/tt0906778/&lt;/a&gt;\n &lt;a href=&quot;\nhttp://www.moviemeter.nl/film/66680&quot; rel=&quot;nofollow&quot; target=&quot;_NEW&quot;&gt;\nhttp://www.moviemeter.nl/film/66680&lt;/a&gt;\n\nSubs: Dutch.\n\nGeneral\nComplete name                    : Black Butterflies-AC3-XviD-DVDRip 2011.avi\nFormat                           : AVI\nFormat/Info                      : Audio Video Interleave\nFile size                        : 1.31 GiB\nDuration                         : 1h 35mn\nOverall bit rate                 : 1 965 Kbps\nWriting application              : VirtualDubMod 1.5.4.1 (build 2178/release)\nWriting library                  : VirtualDubMod build 2178/release\n\nVideo\nID                               : 0\nFormat                           : MPEG-4 Visual\nFormat profile                   : Simple@L3\nFormat settings, BVOP            : No\nFormat settings, QPel            : No\nFormat settings, GMC             : No warppoints\nFormat settings, Matrix          : Default (H.263)\nCodec ID                         : XVID\nCodec ID/Hint                    : XviD\nDuration                         : 1h 35mn\nBit rate                         : 1 507 Kbps\nWidth                            : 720 pixels\nHeight                           : 304 pixels\nDisplay aspect ratio             : 2.35:1\nFrame rate                       : 25.000 fps\nColor space                      : YUV\nChroma subsampling               : 4:2:0\nBit depth                        : 8 bits\nScan type                        : Progressive\nCompression mode                 : Lossy\nBits/(Pixel*Frame)               : 0.275\nStream size                      : 1.00 GiB (77%)\nWriting library                  : XviD 1.1.2 (UTC 2006-11-01)\n\nAudio\nID                               : 1\nFormat                           : AC-3\nFormat/Info                      : Audio Coding 3\nMode extension                   : CM (complete main)\nCodec ID                         : 2000\nDuration                         : 1h 35mn\nBit rate mode                    : Constant\nBit rate                         : 448 Kbps\nChannel(s)                       : 6 channels\nChannel positions                : Front: L C R, Side: L R, LFE\nSampling rate                    : 48.0 KHz\nBit depth                        : 16 bits\nCompression mode                 : Lossy\nStream size                      : 306 MiB (23%)\nAlignment                        : Split accross interleaves\nInterleave, duration             : 40 ms (1.00 video frame)\nInterleave, preload duration     : 500 ms\n\n[img]http://img11.imageshack.us/img11/6462/blackbutterfliesac3xvidz.jpg[/img]","torrent":{"xt":"urn:btih:2a48e6b35eae7b0a0478ad1f25db703379a0ae18","amp;dn":"Black+Butterflies-AC3-XviD-DVDRip+2011","amp;tr":["udp%3A%2F%2Ftracker.openbittorrent.com%3A80","udp%3A%2F%2Fopen.demonii.com%3A1337","udp%3A%2F%2Ftracker.coppersurfer.tk%3A6969","udp%3A%2F%2Fexodus.desync.com%3A6969"],"infoHash":"2a48e6b35eae7b0a0478ad1f25db703379a0ae18","infoHashBuffer":{"type":"Buffer","data":[42,72,230,179,94,174,123,10,4,120,173,31,37,219,112,51,121,160,174,24]},"announce":[],"urlList":[]}}